<svg width="60" height="66" viewBox="0 0 60 66" fill="none" xmlns="http://www.w3.org/2000/svg">
<path fill-rule="evenodd" clip-rule="evenodd" d="M0.11882 39.6C0.11882 40.4752 0.469314 41.3146 1.0932 41.9335C1.71708 42.5523 2.56325 42.9 3.44555 42.9H37.7375C38.6198 42.9 39.466 42.5523 40.0899 41.9335C40.7138 41.3146 41.0642 40.4752 41.0642 39.6C41.0642 38.7248 40.7138 37.8854 40.0899 37.2666C39.466 36.6477 38.6198 36.3 37.7375 36.3H3.44555C2.56325 36.3 1.71708 36.6477 1.0932 37.2666C0.469314 37.8854 0.11882 38.7248 0.11882 39.6ZM0.11882 52.8C0.11882 53.6752 0.469314 54.5146 1.0932 55.1335C1.71708 55.7523 2.56325 56.1 3.44555 56.1H50.0198C50.9021 56.1 51.7483 55.7523 52.3722 55.1335C52.9961 54.5146 53.3465 53.6752 53.3465 52.8C53.3465 51.9248 52.9961 51.0854 52.3722 50.4666C51.7483 49.8477 50.9021 49.5 50.0198 49.5H3.44555C2.56325 49.5 1.71708 49.8477 1.0932 50.4666C0.469314 51.0854 0.11882 51.9248 0.11882 52.8ZM0.11882 26.4C0.11882 27.2752 0.469314 28.1146 1.0932 28.7335C1.71708 29.3523 2.56325 29.7 3.44555 29.7H50.0198C50.9021 29.7 51.7483 29.3523 52.3722 28.7335C52.9961 28.1146 53.3465 27.2752 53.3465 26.4C53.3465 25.5248 52.9961 24.6854 52.3722 24.0666C51.7483 23.4477 50.9021 23.1 50.0198 23.1H3.44555C2.56325 23.1 1.71708 23.4477 1.0932 24.0666C0.469314 24.6854 0.11882 25.5248 0.11882 26.4ZM0.11882 13.2C0.11882 14.0752 0.469314 14.9146 1.0932 15.5335C1.71708 16.1523 2.56325 16.5 3.44555 16.5H37.7375C38.6198 16.5 39.466 16.1523 40.0899 15.5335C40.7138 14.9146 41.0642 14.0752 41.0642 13.2C41.0642 12.3248 40.7138 11.4854 40.0899 10.8666C39.466 10.2477 38.6198 9.90001 37.7375 9.90001H3.44555C2.56325 9.90001 1.71708 10.2477 1.0932 10.8666C0.469314 11.4854 0.11882 12.3248 0.11882 13.2Z" fill="white"/>
</svg>
