<svg width="19" height="25" viewBox="0 0 19 25" fill="none" xmlns="http://www.w3.org/2000/svg">
<path d="M4.363 2.75H3.2C2.93478 2.75 2.68043 2.85536 2.49289 3.04289C2.30535 3.23043 2.2 3.48478 2.2 3.75V21.25C2.2 21.5152 2.30535 21.7696 2.49289 21.9571C2.68043 22.1446 2.93478 22.25 3.2 22.25H4.363M4.363 2.75V22.25M4.363 2.75H16.8C17.0652 2.75 17.3196 2.85536 17.5071 3.04289C17.6946 3.23043 17.8 3.48478 17.8 3.75V21.25C17.8 21.5152 17.6946 21.7696 17.5071 21.9571C17.3196 22.1446 17.0652 22.25 16.8 22.25H4.363" stroke="white" stroke-linecap="round" stroke-linejoin="round"/>
<path d="M5.8315 4.638H16.3315V11.638H5.8315V4.638Z" stroke="white" stroke-width="0.7" stroke-linecap="round" stroke-linejoin="round"/>
<path d="M11.0815 4.638V8.138M11.0815 8.138H5.8315M11.0815 8.138H16.3315M11.0815 5.724H16.3315M11.0815 6.931H16.3315M5.8315 9.345H16.3315M5.8315 10.552H16.3315" stroke="white" stroke-width="0.7" stroke-linecap="round" stroke-linejoin="round"/>
</svg>
