<svg width="24" height="27" viewBox="0 0 24 27" fill="none" xmlns="http://www.w3.org/2000/svg">
<path d="M20.7273 17.8334H3.15273C2.62145 17.8334 2.22655 18.0197 1.91673 18.3219C1.40509 18.8203 1.22182 19.5569 1.14109 20.2633C1.04727 21.0812 1.08109 21.8298 1.31018 22.6412C1.56764 23.5458 2.20473 24.3334 3.14836 24.3334H20.7273M18.9884 24.3334C17.3095 22.8037 16.6211 20.1539 18.9884 17.8334M10.7105 7.54169C10.7105 4.83335 7.75527 3.75002 7.75527 3.75002M10.7105 7.99777C10.7105 7.99777 4.20982 4.67735 4.20982 10.1504C4.21091 15.6244 7.16727 17.8334 8.34654 17.8334C9.28691 17.8334 9.84109 16.7403 10.7105 16.7403C11.58 16.7403 11.8909 17.8334 13.0735 17.8334C14.2516 17.8334 17.2102 15.6234 17.2102 10.1504C17.2102 4.67735 10.7105 7.99777 10.7105 7.99777ZM11.3007 7.00002C11.3007 2.67752 13.4291 3.75002 14.4938 2.66669C15.5575 5.37502 14.1338 5.91994 11.3007 7.00002Z" stroke="white" stroke-width="1.5" stroke-linecap="round" stroke-linejoin="round"/>
</svg>
