<svg width="16" height="23" viewBox="0 0 16 23" fill="none" xmlns="http://www.w3.org/2000/svg">
<path d="M14.9998 4.5L7.99982 1.5L0.999824 4.5L4.49982 6V8M14.9998 4.5L11.4998 6V8M14.9998 4.5V8.5M4.49982 8C4.49982 8 5.66682 7.5 7.99982 7.5C10.3328 7.5 11.4998 8 11.4998 8M4.49982 8V9C4.49982 9.45963 4.59035 9.91475 4.76625 10.3394C4.94214 10.764 5.19995 11.1499 5.52495 11.4749C5.84996 11.7999 6.23579 12.0577 6.66043 12.2336C7.08507 12.4095 7.5402 12.5 7.99982 12.5C8.45945 12.5 8.91458 12.4095 9.33922 12.2336C9.76386 12.0577 10.1497 11.7999 10.4747 11.4749C10.7997 11.1499 11.0575 10.764 11.2334 10.3394C11.4093 9.91475 11.4998 9.45963 11.4998 9V8M3.78282 16.203C2.68282 16.888 -0.203176 18.285 1.55382 20.034C2.41282 20.89 3.36982 21.5 4.57082 21.5H11.4288C12.6308 21.5 13.5868 20.889 14.4458 20.034C16.2028 18.285 13.3178 16.888 12.2168 16.204C10.9509 15.4174 9.49022 15.0005 7.99982 15.0005C6.50943 15.0005 5.04874 15.4174 3.78282 16.204" stroke="white" stroke-width="1.5" stroke-linecap="round" stroke-linejoin="round"/>
</svg>
